<?xml version="1.0" encoding="iso-8859-1"?>
<!-- Uploaded to: SVG Repo, www.svgrepo.com, Generator: SVG Repo Mixer Tools -->
<svg fill="#000000" height="800px" width="800px" version="1.1" id="Layer_1" xmlns="http://www.w3.org/2000/svg" xmlns:xlink="http://www.w3.org/1999/xlink" 
	 viewBox="0 0 512 512" xml:space="preserve">
<g transform="translate(1 1)">
	<g>
		<g>
			<path d="M489.101,331.245c8.567-25.599,13.221-52.703,13.221-80.584c0-135.853-108.005-246.764-242.72-251.485L259.339-1H255
				c-1.736,0-2.603,0-4.339,0c-0.868,0-2.603,0-3.471,0h-5.207l-0.263,0.176C107.005,3.897-1,114.808-1,250.661
				c0,63.459,23.575,121.47,62.42,165.768c0.237,0.615,0.539,1.198,0.929,1.717c0.819,1.228,1.834,2.058,2.948,2.605
				c44.141,48.071,106.702,78.952,176.423,81.395l0.263,0.176h5.207c0.868,0,2.603,0,3.471,0c27.881,0,54.985-4.655,80.584-13.221
				C349.949,502.871,373.085,511,398.186,511C460.668,511,511,460.668,511,398.186C511,373.085,502.871,349.949,489.101,331.245z
				 M408.794,285.869c-0.752-0.07-1.504-0.136-2.26-0.191c-0.331-0.024-0.663-0.041-0.995-0.063
				c-0.577-0.037-1.154-0.076-1.734-0.104c-0.524-0.026-1.051-0.041-1.576-0.06c-0.403-0.014-0.805-0.034-1.209-0.043
				c-0.942-0.023-1.886-0.036-2.833-0.036c-6.695,0-13.249,0.582-19.618,1.691c1.262-9.242,1.91-18.483,2.144-27.725h104.083
				c-0.755,19.423-4.009,38.679-9.201,56.66c-17.681-16.653-40.765-27.634-66.408-30.096
				C409.056,285.891,408.924,285.881,408.794,285.869z M285.409,401.02c0.01,0.404,0.029,0.806,0.043,1.209
				c0.018,0.526,0.034,1.052,0.06,1.576c0.028,0.58,0.067,1.156,0.104,1.734c0.021,0.331,0.038,0.664,0.063,0.995
				c0.055,0.756,0.121,1.508,0.191,2.26c0.012,0.131,0.022,0.262,0.035,0.392c2.461,25.64,13.441,48.723,30.091,66.403
				c-18.694,5.192-37.394,8.446-56.656,9.204V259.339h104.023c-0.263,11.025-1.03,21.652-2.304,32.252
				c-44.141,15.293-75.685,57.134-75.685,106.595C285.373,399.134,285.385,400.078,285.409,401.02z M16.533,259.339H120.61
				c0.979,36.755,8.165,72.532,20.938,106.053c-24.531,8.94-48.114,20.926-70.382,35.772
				C38.707,362.504,18.501,313.233,16.533,259.339z M75.536,95.102c21.737,14.014,44.816,25.261,68.857,33.614
				c-14.554,35.58-22.735,73.863-23.784,113.267H16.533C18.588,185.71,40.528,134.477,75.536,95.102z M484.789,241.983H380.712
				c-1.05-39.422-9.237-77.722-23.803-113.315c24.065-8.411,47.078-19.746,68.595-33.883
				C460.676,134.201,482.729,185.559,484.789,241.983z M241.983,129.032c-25.011-0.715-49.802-4.512-73.769-11.277
				c17.593-36.24,42.485-68.979,73.769-96.238V129.032z M241.983,146.398v95.585H137.969c1.051-37.668,8.938-74.171,22.967-108.024
				C187.111,141.488,214.285,145.673,241.983,146.398z M259.339,146.398c27.726-0.726,54.919-4.92,81.037-12.463
				c14.035,33.86,21.925,70.371,22.977,108.048H259.339V146.398z M259.339,129.032V21.518
				c31.283,27.258,56.176,59.997,73.769,96.238C309.141,124.52,284.35,128.317,259.339,129.032z M349.778,112.527
				c-16.565-34.867-39.443-66.762-67.859-94.086c50.605,6.762,96.122,29.701,131.173,63.445
				C393.18,94.626,371.908,104.873,349.778,112.527z M151.544,112.527c-22.13-7.654-43.402-17.902-63.314-30.641
				c35.052-33.744,80.568-56.684,131.173-63.445C190.987,45.766,168.109,77.66,151.544,112.527z M137.969,259.339h104.014v86.911
				c-28.701,0.777-56.87,5.397-84.019,13.663C145.793,328.178,138.943,294.259,137.969,259.339z M241.983,363.608v116.196
				c-33.508-29.197-59.683-64.683-77.41-104.022C189.571,368.414,215.524,364.34,241.983,363.608z M82.872,414.102
				c20.584-13.747,42.426-24.74,65.177-32.919c16.78,37.841,40.882,72.397,71.354,101.698
				C166.177,475.769,118.583,450.755,82.872,414.102z M398.186,493.644c-31.183,0-58.747-14.759-76.14-37.706
				c-11.861-15.811-18.674-35.074-19.273-54.897c-0.002-0.069-0.006-0.138-0.008-0.208c-0.025-0.881-0.038-1.764-0.038-2.647
				c0-52.936,42.522-95.458,95.458-95.458c0.883,0,1.765,0.013,2.647,0.038c0.069,0.002,0.138,0.006,0.208,0.008
				c19.823,0.598,39.086,7.411,54.897,19.273c22.947,17.392,37.706,44.957,37.706,76.14
				C493.644,451.122,451.122,493.644,398.186,493.644z"/>
			<path d="M450.254,389.508h-43.39v-43.39c0-5.207-3.471-8.678-8.678-8.678c-5.207,0-8.678,3.471-8.678,8.678v43.39h-43.39
				c-5.207,0-8.678,3.471-8.678,8.678c0,5.207,3.471,8.678,8.678,8.678h43.39v43.39c0,5.207,3.471,8.678,8.678,8.678
				c5.207,0,8.678-3.471,8.678-8.678v-43.39h43.39c5.207,0,8.678-3.471,8.678-8.678C458.932,392.98,455.461,389.508,450.254,389.508
				z"/>
		</g>
	</g>
</g>
</svg>